<svg height="512" viewBox="0 0 512 512" width="512" xmlns="http://www.w3.org/2000/svg"><g><g><path d="m334.9 482.76a47.788 47.788 0 0 0 33.1 13.24h-240a48 48 0 0 1 0-96h240a48 48 0 0 0 -33.1 82.76z" fill="#898890"/><path d="m432 16v430a50.005 50.005 0 0 1 -50 50h-14a48 48 0 0 1 0-96h-240v-384z" fill="#e0e0e2"/><path d="m368 496a47.788 47.788 0 0 1 -33.1-13.24z" fill="#e0e0e2"/><g fill="#cca400"><path d="m160 56h240v48h-240z"/><path d="m160 136h48v48h-48z"/><path d="m160 216h48v48h-48z"/><path d="m160 296h48v48h-48z"/></g></g><g><path d="m432 8h-304a8 8 0 0 0 -8 8v376.57a56 56 0 0 0 8 111.43h254a58.067 58.067 0 0 0 58-58v-430a8 8 0 0 0 -8-8zm-304 480a40 40 0 0 1 0-80h200.85a55.891 55.891 0 0 0 .01 80zm296-42a42.046 42.046 0 0 1 -42 42h-14a40 40 0 0 1 0-80 8 8 0 0 0 0-16h-232v-368h288z"/><path d="m160 112h240a8 8 0 0 0 8-8v-48a8 8 0 0 0 -8-8h-240a8 8 0 0 0 -8 8v48a8 8 0 0 0 8 8zm8-48h224v32h-224z"/><path d="m160 192h48a8 8 0 0 0 8-8v-48a8 8 0 0 0 -8-8h-48a8 8 0 0 0 -8 8v48a8 8 0 0 0 8 8zm8-48h32v32h-32z"/><path d="m400 128h-168a8 8 0 0 0 0 16h168a8 8 0 0 0 0-16z"/><path d="m400 152h-168a8 8 0 0 0 0 16h168a8 8 0 0 0 0-16z"/><path d="m232 192h72a8 8 0 0 0 0-16h-72a8 8 0 0 0 0 16z"/><path d="m160 272h48a8 8 0 0 0 8-8v-48a8 8 0 0 0 -8-8h-48a8 8 0 0 0 -8 8v48a8 8 0 0 0 8 8zm8-48h32v32h-32z"/><path d="m400 208h-168a8 8 0 0 0 0 16h168a8 8 0 0 0 0-16z"/><path d="m400 232h-168a8 8 0 0 0 0 16h168a8 8 0 0 0 0-16z"/><path d="m232 272h72a8 8 0 0 0 0-16h-72a8 8 0 0 0 0 16z"/><path d="m336 192a8 8 0 0 0 0-16h-8a8 8 0 0 0 0 16z"/><path d="m336 272a8 8 0 0 0 0-16h-8a8 8 0 0 0 0 16z"/><path d="m160 352h48a8 8 0 0 0 8-8v-48a8 8 0 0 0 -8-8h-48a8 8 0 0 0 -8 8v48a8 8 0 0 0 8 8zm8-48h32v32h-32z"/><path d="m400 288h-168a8 8 0 0 0 0 16h168a8 8 0 0 0 0-16z"/><path d="m400 312h-168a8 8 0 0 0 0 16h168a8 8 0 0 0 0-16z"/><path d="m304 336h-72a8 8 0 0 0 0 16h72a8 8 0 0 0 0-16z"/><path d="m336 336h-8a8 8 0 0 0 0 16h8a8 8 0 0 0 0-16z"/></g></g></svg>